<svg width="1024" height="1024" viewBox="0 0 1024 1024" fill="none" xmlns="http://www.w3.org/2000/svg">
  <defs>
    <linearGradient id="qrowgBg" x1="0" y1="0" x2="360" y2="1024" gradientUnits="userSpaceOnUse">
      <stop offset="0" stop-color="#2A2A2A"/>
      <stop offset="1" stop-color="#0E0E0E"/>
    </linearGradient>
  </defs>
  <rect width="1024" height="1024" rx="232" fill="url(#qrowgBg)"/>
  <g fill="#E9C86B">
    <!-- Coins du cadre de scan -->
    <rect x="175" y="175" width="140" height="50" rx="25"/>
    <rect x="175" y="175" width="50" height="140" rx="25"/>
    <rect x="709" y="175" width="140" height="50" rx="25"/>
    <rect x="799" y="175" width="50" height="140" rx="25"/>
    <rect x="175" y="799" width="140" height="50" rx="25"/>
    <rect x="175" y="709" width="50" height="140" rx="25"/>
    <rect x="709" y="799" width="140" height="50" rx="25"/>
    <rect x="799" y="709" width="50" height="140" rx="25"/>
    <!-- Modules haut -->
    <rect x="335" y="315" width="54" height="54" rx="15"/>
    <rect x="485" y="315" width="54" height="54" rx="15"/>
    <rect x="635" y="315" width="54" height="54" rx="15"/>
    <!-- Ligne de scan -->
    <rect x="232" y="476" width="560" height="72" rx="36"/>
    <!-- Modules bas -->
    <rect x="378" y="645" width="54" height="54" rx="15"/>
    <rect x="592" y="645" width="54" height="54" rx="15"/>
  </g>
</svg>
